HIERARCHY
ROOT Hips
{
	OFFSET 50.016998 -13.941716 100.667999
	CHANNELS 6 Xposition Yposition Zposition Xrotation Yrotation Zrotation
	JOINT spine
	{
		OFFSET 0.000000 -0.507026 8.817047
		CHANNELS 3 Xrotation Yrotation Zrotation
		JOINT spine1
		{
			OFFSET 0.000000 -0.000002 10.776596
			CHANNELS 3 Xrotation Yrotation Zrotation
			JOINT spine2
			{
				OFFSET 0.000000 -0.000001 10.325897
				CHANNELS 3 Xrotation Yrotation Zrotation
				JOINT Neck
				{
					OFFSET 0.000000 -1.263955 26.511002
					CHANNELS 3 Xrotation Yrotation Zrotation
					JOINT Head
					{
						OFFSET 0.000000 -0.000001 8.009659
						CHANNELS 3 Xrotation Yrotation Zrotation
						End Site
						{
							OFFSET 0.000000 6.393856 19.387894
						}
					}
				}
				JOINT RightShoulder
				{
					OFFSET -4.347950 0.605420 11.151199
					CHANNELS 3 Xrotation Yrotation Zrotation
					JOINT RightArm
					{
						OFFSET 0.000000 -0.000003 14.625793
						CHANNELS 3 Xrotation Yrotation Zrotation
						JOINT RightArmRoll
						{
							OFFSET 0.000000 -0.000001 7.383392
							CHANNELS 3 Xrotation Yrotation Zrotation
							JOINT RightForeArm
							{
								OFFSET 0.000000 -0.000004 21.505203
								CHANNELS 3 Xrotation Yrotation Zrotation
								JOINT RightForeArmRoll
								{
									OFFSET 0.000000 -0.000001 8.285324
									CHANNELS 3 Xrotation Yrotation Zrotation
									JOINT RightHand
									{
										OFFSET 0.000000 -0.000003 16.626801
										CHANNELS 3 Xrotation Yrotation Zrotation
										End Site
										{
											OFFSET 0.000000 0.000000 0.100006
										}
									}
								}
							}
						}
					}
				}
				JOINT LeftShoulder
				{
					OFFSET 4.347950 0.605420 11.151199
					CHANNELS 3 Xrotation Yrotation Zrotation
					JOINT LeftArm
					{
						OFFSET 0.000000 -0.000003 14.625793
						CHANNELS 3 Xrotation Yrotation Zrotation
						JOINT LeftArmRoll
						{
							OFFSET 0.000000 -0.000001 7.383392
							CHANNELS 3 Xrotation Yrotation Zrotation
							JOINT LeftForeArm
							{
								OFFSET 0.000000 -0.000004 21.505203
								CHANNELS 3 Xrotation Yrotation Zrotation
								JOINT LeftForeArmRoll
								{
									OFFSET 0.000000 -0.000001 8.285324
									CHANNELS 3 Xrotation Yrotation Zrotation
									JOINT LeftHand
									{
										OFFSET 0.000000 -0.000003 16.626801
										CHANNELS 3 Xrotation Yrotation Zrotation
										End Site
										{
											OFFSET 0.000000 0.000000 0.100006
										}
									}
								}
							}
						}
					}
				}
			}
		}
	}
	JOINT RightUpLeg
	{
		OFFSET -7.815102 1.202170 -1.433090
		CHANNELS 3 Xrotation Yrotation Zrotation
		JOINT RightUpLegRoll
		{
			OFFSET 0.000000 -0.000003 19.495895
			CHANNELS 3 Xrotation Yrotation Zrotation
			JOINT RightLeg
			{
				OFFSET 0.000000 0.000004 -24.142700
				CHANNELS 3 Xrotation Yrotation Zrotation
				JOINT RightLegRoll
				{
					OFFSET 0.000000 -0.000004 24.221703
					CHANNELS 3 Xrotation Yrotation Zrotation
					JOINT RightFoot
					{
						OFFSET 0.000000 -0.000004 20.160500
						CHANNELS 3 Xrotation Yrotation Zrotation
						JOINT RightToeBase
						{
							OFFSET 0.000000 -0.000003 16.853195
							CHANNELS 3 Xrotation Yrotation Zrotation
							End Site
							{
								OFFSET 0.007145 0.940779 8.161865
							}
						}
					}
				}
			}
		}
	}
	JOINT LeftUpLeg
	{
		OFFSET 7.815102 1.202170 -1.433090
		CHANNELS 3 Xrotation Yrotation Zrotation
		JOINT LeftUpLegRoll
		{
			OFFSET 0.000000 -0.000003 19.496002
			CHANNELS 3 Xrotation Yrotation Zrotation
			JOINT LeftLeg
			{
				OFFSET 0.000000 -0.000004 24.142593
				CHANNELS 3 Xrotation Yrotation Zrotation
				JOINT LeftLegRoll
				{
					OFFSET 0.000000 -0.000005 24.445602
					CHANNELS 3 Xrotation Yrotation Zrotation
					JOINT LeftFoot
					{
						OFFSET 0.000000 -0.000003 19.936600
						CHANNELS 3 Xrotation Yrotation Zrotation
						JOINT LeftToeBase
						{
							OFFSET 0.000000 -0.000003 16.853195
							CHANNELS 3 Xrotation Yrotation Zrotation
							End Site
							{
								OFFSET -0.032013 0.940780 8.161865
							}
						}
					}
				}
			}
		}
	}
}
MOTION
Frames: 10
Frame Time: 0.041667
50.554001 -14.778914 100.595001 -2.716996 0.650403 -2.233904 -1.969560 -0.028395 -0.121885 0.070717 -0.052827 -0.245838 1.715790 -0.055991 -0.245319 23.532111 -9.698285 5.154593 -4.168155 5.766430 3.987163 -7.848926 -35.798066 -7.294276 -134.590831 -142.821906 -135.547030 -0.000002 0.000000 -0.000000 110.936800 8.757118 -11.877098 -0.000001 0.000006 -3.000661 -5.000239 -7.998731 0.000157 -8.466925 61.804729 10.213785 -39.592455 114.083892 31.721198 0.000003 0.000002 0.000001 3.556408 11.284792 0.123174 -0.000004 0.000005 3.000000 -5.000257 7.998714 -0.000169 0.998691 -178.138273 -0.020989 -179.999991 0.000005 -1.093999 174.102792 -1.836241 -0.470647 -0.000002 0.000004 0.038548 68.181837 6.902576 2.154511 25.469999 -7.355624 0.009623 1.240320 176.610797 0.904396 -0.000005 -0.000004 -1.159000 -9.650814 3.222302 0.610366 -0.000003 0.000001 -0.154111 70.798995 -6.867852 -2.070527 26.459482 7.346989 -0.786694 
50.547401 -14.782013 100.595009 -2.719507 0.653324 -2.236608 -1.970581 -0.028307 -0.123561 0.069290 -0.052728 -0.248540 1.714360 -0.055882 -0.248032 23.546080 -9.642621 5.119188 -4.188972 5.704720 3.960189 -7.830521 -35.812523 -7.270780 -134.580026 -142.771922 -135.881354 -0.000001 0.000001 0.000000 111.128373 8.843669 -12.092496 -0.000002 0.000008 -3.000662 -5.000234 -7.998731 0.000159 -8.473407 61.810459 10.221662 -39.621067 114.124176 31.779596 0.000001 0.000002 0.000001 3.565899 11.297851 0.121169 -0.000002 0.000005 3.000001 -5.000259 7.998712 -0.000169 1.004652 -178.144284 -0.023673 -179.999991 0.000005 -1.094000 174.106440 -1.836253 -0.469532 -0.000001 0.000004 0.038517 68.184173 6.902649 2.154479 25.468073 -7.355614 0.005988 1.247919 176.605811 0.901853 -0.000005 -0.000004 -1.159060 -9.645058 3.221628 0.609775 -0.000004 0.000001 -0.154120 70.799835 -6.867823 -2.070569 26.453420 7.346987 -0.788729 
50.545799 -14.790516 100.597008 -2.722210 0.656181 -2.239181 -1.971488 -0.028165 -0.125165 0.068020 -0.052500 -0.251218 1.713090 -0.055649 -0.250719 23.556984 -9.585072 5.083480 -4.205344 5.642366 3.933182 -7.812673 -35.826156 -7.247962 -134.568783 -142.721447 -136.192825 -0.000000 0.000001 -0.000000 111.308608 8.923298 -12.292986 0.000000 0.000006 -3.000657 -5.000241 -7.998733 0.000158 -8.480933 61.816634 10.230772 -39.651608 114.167514 31.837950 0.000002 0.000002 0.000001 3.575228 11.309020 0.119383 -0.000001 0.000005 3.000001 -5.000259 7.998713 -0.000169 1.010775 -178.149283 -0.026017 -179.999991 0.000005 -1.094000 174.110073 -1.836265 -0.469416 -0.000001 0.000004 0.038486 68.186489 6.902686 2.154540 25.466254 -7.355624 0.002768 1.255702 176.600811 0.899636 -0.000005 -0.000004 -1.159120 -9.639130 3.220767 0.609215 -0.000003 0.000001 -0.154130 70.800675 -6.867794 -2.070512 26.447355 7.346981 -0.790773 
50.534199 -14.788912 100.598015 -2.725123 0.658963 -2.241625 -1.972278 -0.027959 -0.126680 0.066913 -0.052114 -0.253859 1.711981 -0.055266 -0.253367 23.564433 -9.525842 5.047595 -4.216406 5.579773 3.906221 -7.795689 -35.838730 -7.226224 -134.556243 -142.670699 -136.478996 0.000002 0.000000 -0.000000 111.476924 8.995310 -12.479332 -0.000001 0.000009 -3.000660 -5.000238 -7.998732 0.000156 -8.489374 61.823259 10.240987 -39.685919 114.213242 31.898046 0.000002 0.000002 0.000002 3.584388 11.317893 0.117851 -0.000002 0.000005 3.000000 -5.000262 7.998713 -0.000169 1.017075 -178.154297 -0.028000 -179.999991 0.000005 -1.094000 174.113680 -1.836277 -0.469301 -0.000001 0.000004 0.038455 68.188722 6.902748 2.154514 25.464643 -7.355620 -0.000006 1.263681 176.596822 0.897788 -0.000005 -0.000004 -1.159180 -9.633002 3.219721 0.608689 -0.000003 0.000001 -0.154140 70.801413 -6.867762 -2.070562 26.441298 7.346986 -0.792853 
50.528301 -14.785915 100.598000 -2.728273 0.661639 -2.244091 -1.972939 -0.027681 -0.128161 0.066046 -0.051568 -0.256512 1.711111 -0.054731 -0.256051 23.568515 -9.463362 5.011021 -4.223114 5.514719 3.879067 -7.778732 -35.850106 -7.204436 -134.542022 -142.619391 -136.743065 -0.000000 -0.000000 -0.000000 111.633951 9.061598 -12.653862 0.000000 0.000007 -3.000660 -5.000235 -7.998733 0.000158 -8.499544 61.830376 10.253261 -39.726716 114.261026 31.964858 0.000003 0.000002 0.000001 3.594831 11.326250 0.116263 -0.000001 0.000005 3.000001 -5.000259 7.998714 -0.000169 1.023496 -178.159283 -0.029527 -179.999991 0.000005 -1.094000 174.117245 -1.836289 -0.468175 -0.000001 0.000004 0.038424 68.190935 6.902779 2.154581 25.463427 -7.355612 -0.002231 1.272010 176.592833 0.896398 -0.000005 -0.000004 -1.159240 -9.626487 3.218453 0.608189 -0.000003 0.000001 -0.154150 70.802144 -6.867733 -2.070512 26.435231 7.346983 -0.794938 
50.529499 -14.789615 100.599007 -2.731632 0.664195 -2.246640 -1.973459 -0.027342 -0.129672 0.065473 -0.050899 -0.259226 1.710540 -0.054077 -0.258837 23.569624 -9.395939 4.973104 -4.227120 5.445075 3.851443 -7.760922 -35.860426 -7.181385 -134.526655 -142.567249 -136.990550 -0.000000 0.000001 0.000000 111.780294 9.125811 -12.818302 0.000001 0.000007 -3.000660 -5.000235 -7.998729 0.000156 -8.512182 61.838135 10.268434 -39.772953 114.311760 32.038983 0.000002 0.000003 0.000001 3.607644 11.335482 0.114372 -0.000002 0.000004 3.000001 -5.000260 7.998712 -0.000169 1.029956 -178.163299 -0.030556 -179.999991 0.000005 -1.094000 174.120701 -1.837292 -0.468167 -0.000001 0.000004 0.038393 68.193059 6.902833 2.154560 25.462418 -7.355620 -0.003885 1.280780 176.589842 0.895542 -0.000005 -0.000004 -1.159300 -9.619432 3.216912 0.607692 -0.000003 0.000001 -0.154161 70.802670 -6.867703 -2.070574 26.429074 7.346984 -0.797029 
50.531799 -14.783519 100.599998 -2.735196 0.666652 -2.249211 -1.973861 -0.026952 -0.131202 0.065160 -0.050128 -0.261989 1.710230 -0.053324 -0.261703 23.568312 -9.323995 4.934011 -4.228651 5.371444 3.823397 -7.742346 -35.869903 -7.157216 -134.510085 -142.514424 -137.221670 0.000001 0.000000 0.000001 111.916270 9.186843 -12.974460 -0.000000 0.000005 -3.000658 -5.000244 -7.998735 0.000157 -8.526998 61.846468 10.286180 -39.823596 114.365138 32.118719 0.000002 0.000002 0.000001 3.622234 11.345083 0.112284 -0.000001 0.000005 3.000001 -5.000259 7.998713 -0.000169 1.036486 -178.166304 -0.031153 -179.999991 0.000005 -1.094000 174.124048 -1.838295 -0.467164 -0.000001 0.000004 0.038362 68.195184 6.902890 2.154537 25.461707 -7.355618 -0.005026 1.289898 176.586864 0.895139 -0.000005 -0.000004 -1.159360 -9.611944 3.215139 0.607206 -0.000003 0.000001 -0.154171 70.803093 -6.867704 -2.070549 26.422910 7.346986 -0.799142 
50.522499 -14.783216 100.599998 -2.738928 0.669030 -2.251734 -1.974160 -0.026521 -0.132743 0.065073 -0.049274 -0.264792 1.710141 -0.052492 -0.264631 23.564535 -9.248263 4.893936 -4.227980 5.294385 3.794982 -7.723131 -35.878721 -7.132139 -134.492777 -142.460944 -137.436575 0.000000 -0.000001 0.000000 112.041597 9.245472 -13.121384 -0.000001 0.000006 -3.000660 -5.000238 -7.998735 0.000160 -8.543725 61.855184 10.306189 -39.879449 114.420231 32.204236 -0.000001 0.000002 0.000001 3.638020 11.354574 0.110100 -0.000002 0.000004 3.000001 -5.000259 7.998713 -0.000169 1.043098 -178.170307 -0.031421 -179.999991 0.000005 -1.094000 174.127354 -1.840304 -0.467263 -0.000002 0.000004 0.038331 68.197199 6.902937 2.154521 25.461308 -7.355613 -0.005712 1.299300 176.583872 0.895125 -0.000005 -0.000004 -1.159410 -9.604091 3.213153 0.606728 -0.000003 0.000001 -0.154182 70.803503 -6.867641 -2.070613 26.416643 7.346987 -0.801277 
50.513599 -14.788615 100.602997 -2.742808 0.671350 -2.254147 -1.974358 -0.026060 -0.134286 0.065178 -0.048360 -0.267624 1.710250 -0.051604 -0.267599 23.558834 -9.169036 4.852986 -4.225317 5.214487 3.766259 -7.703377 -35.886972 -7.106276 -134.474909 -142.406835 -137.635634 -0.000000 -0.000000 -0.000001 112.156713 9.301008 -13.259993 0.000000 0.000008 -3.000660 -5.000239 -7.998731 0.000156 -8.562184 61.864397 10.328230 -39.936502 114.478192 32.290580 0.000001 0.000002 0.000001 3.654415 11.363455 0.107927 -0.000003 0.000004 3.000001 -5.000259 7.998713 -0.000169 1.049791 -178.173312 -0.031386 -179.999991 0.000005 -1.094000 174.130591 -1.842298 -0.466365 -0.000001 0.000004 0.038300 68.199200 6.902984 2.154503 25.461108 -7.355618 -0.005990 1.308921 176.581891 0.895461 -0.000005 -0.000004 -1.159460 -9.595977 3.210961 0.606262 -0.000003 0.000001 -0.154193 70.803804 -6.867610 -2.070588 26.410284 7.346983 -0.803424 
50.513599 -14.788315 100.600998 -2.746797 0.673632 -2.256361 -1.974470 -0.025579 -0.135821 0.065442 -0.047406 -0.270474 1.710511 -0.050679 -0.270590 23.551355 -9.086891 4.811316 -4.220941 5.132317 3.737279 -7.683212 -35.895041 -7.079854 -134.456727 -142.352057 -137.818860 -0.000001 0.000000 0.000000 112.261652 9.353483 -13.388254 0.000000 0.000006 -3.000659 -5.000243 -7.998735 0.000158 -8.582022 61.873816 10.351898 -39.998366 114.536556 32.381032 0.000001 0.000001 0.000001 3.670824 11.371236 0.105870 -0.000001 0.000005 3.000001 -5.000261 7.998713 -0.000169 1.056592 -178.176317 -0.031135 -179.999991 0.000005 -1.094000 174.133829 -1.844293 -0.466466 -0.000001 0.000004 0.038269 68.201208 6.902995 2.154582 25.461108 -7.355609 -0.005946 1.318667 176.580908 0.896088 -0.000005 -0.000004 -1.159520 -9.587682 3.208614 0.605810 -0.000002 0.000001 -0.154204 70.804118 -6.867576 -2.070564 26.403819 7.346994 -0.805604 
